<?xml version="1.0" encoding="UTF-8" standalone="no"?>
<!DOCTYPE svg PUBLIC "-//W3C//DTD SVG 1.1//EN" "http://www.w3.org/Graphics/SVG/1.1/DTD/svg11.dtd">
<svg version="1.1" xmlns="http://www.w3.org/2000/svg" xmlns:xlink="http://www.w3.org/1999/xlink" preserveAspectRatio="xMidYMid meet" viewBox="0 0 24 24" width="24" height="24"><defs><path d="M2 4.5C6.52 4.5 9.34 4.5 10.47 4.5C11.31 4.5 12 5.19 12 6.03C12 8.67 12 15.04 12 17.68C12 18.52 11.31 19.21 10.47 19.21C9.34 19.21 6.52 19.21 2 19.21L2 4.5Z" id="beUjBKD8Z"></path><clipPath id="clipb12MAZjLJ"><use xlink:href="#beUjBKD8Z" opacity="1"></use></clipPath><path d="M22 4.5L22 19.21C17.48 19.21 14.66 19.21 13.53 19.21C12.69 19.21 12 18.52 12 17.68C12 15.04 12 8.67 12 6.03C12 5.19 12.69 4.5 13.53 4.5C14.66 4.5 17.48 4.5 22 4.5Z" id="b5dezGjRgC"></path><clipPath id="clipe2WyeumIO6"><use xlink:href="#b5dezGjRgC" opacity="1"></use></clipPath><path d="M13 19C13 19.55 12.55 20 12 20C11.45 20 11 19.55 11 19C11 18.45 11.45 18 12 18C12.55 18 13 18.45 13 19Z" id="c4n6tuUwqH"></path><path d="M22 4.5L22 17.45C17.39 17.45 14.5 17.45 13.35 17.45C12.6 17.45 12 16.85 12 16.1C12 13.78 12 8.17 12 5.85C12 5.1 12.6 4.5 13.35 4.5C14.5 4.5 17.39 4.5 22 4.5Z" id="a4gcCLD9si"></path><clipPath id="clipgFIwjB2de"><use xlink:href="#a4gcCLD9si" opacity="1"></use></clipPath><path d="M2 4.5C6.62 4.5 9.51 4.5 10.66 4.5C11.4 4.5 12 5.1 12 5.84C12 8.14 12 13.7 12 16C12 16.74 11.4 17.34 10.66 17.34C9.51 17.34 6.62 17.34 2 17.34L2 4.5Z" id="aiWpj5eAw"></path><clipPath id="clipbxN4LR4UJ"><use xlink:href="#aiWpj5eAw" opacity="1"></use></clipPath><path d="M17.25 5.25L19.25 5.25L19.25 11.25L18.75 10.56L18.25 9.88L17.75 10.56L17.25 11.25L17.25 11.25L17.25 5.25Z" id="a1xggq1oN7"></path></defs><g><g><g><g clip-path="url(#clipb12MAZjLJ)"><use xlink:href="#beUjBKD8Z" opacity="1" fill-opacity="0" stroke="#000000" stroke-width="2" stroke-opacity="1"></use></g></g><g><g clip-path="url(#clipe2WyeumIO6)"><use xlink:href="#b5dezGjRgC" opacity="1" fill-opacity="0" stroke="#000000" stroke-width="2" stroke-opacity="1"></use></g></g><g><g><use xlink:href="#c4n6tuUwqH" opacity="1" fill-opacity="0" stroke="#111129" stroke-width="1" stroke-opacity="1"></use></g></g><g><g clip-path="url(#clipgFIwjB2de)"><use xlink:href="#a4gcCLD9si" opacity="1" fill-opacity="0" stroke="#000000" stroke-width="2" stroke-opacity="1"></use></g></g><g><g clip-path="url(#clipbxN4LR4UJ)"><use xlink:href="#aiWpj5eAw" opacity="1" fill-opacity="0" stroke="#000000" stroke-width="2" stroke-opacity="1"></use></g></g><g><use xlink:href="#a1xggq1oN7" opacity="1" fill="#000000" fill-opacity="1"></use></g></g></g></svg>