<?xml version="1.0" encoding="UTF-8" standalone="no"?>
<!DOCTYPE svg PUBLIC "-//W3C//DTD SVG 1.1//EN" "http://www.w3.org/Graphics/SVG/1.1/DTD/svg11.dtd">
<svg version="1.1" xmlns="http://www.w3.org/2000/svg" xmlns:xlink="http://www.w3.org/1999/xlink" preserveAspectRatio="xMidYMid meet" viewBox="0 0 24 24" width="24" height="24"><defs><path d="M7.08 11.79C7.08 14.99 7.08 16.99 7.08 17.79C7.08 18.17 7.3 18.51 7.64 18.68C8.51 19.09 10.61 20.08 11.49 20.5C11.8 20.65 12.17 20.65 12.48 20.5C13.36 20.07 15.37 19.09 16.22 18.68C16.63 18.48 16.89 18.06 16.89 17.61C16.89 16.83 16.89 14.89 16.89 11.79L7.08 11.79Z" id="f8bdea8Fs"></path><path d="M13.42 13.29C12.5 13.68 11.47 13.68 10.55 13.29C8.39 12.37 4.65 10.79 2.82 10.02C1.7 9.54 1.73 7.95 2.87 7.52C4.69 6.83 8.48 5.41 10.67 4.59C11.52 4.27 12.45 4.27 13.3 4.59C15.49 5.41 19.31 6.85 21.14 7.54C22.26 7.96 22.29 9.53 21.19 10C19.35 10.78 15.59 12.37 13.42 13.29Z" id="a1lQ631Fsr"></path><mask id="maskc2dEoH5Trh" x="0" y="2.35" width="24" height="13.24" maskUnits="userSpaceOnUse"><rect x="0" y="2.35" width="24" height="13.24" fill="white"></rect><use xlink:href="#a1lQ631Fsr" opacity="1" fill="black"></use></mask><path d="M18.42 14.93L18.42 10.83L11.99 8.65" id="g1UviqXeim"></path></defs><g><g><g><use xlink:href="#f8bdea8Fs" opacity="1" fill="#000000" fill-opacity="1"></use></g><g><use xlink:href="#a1lQ631Fsr" opacity="1" fill="#000000" fill-opacity="1"></use><g mask="url(#maskc2dEoH5Trh)"><use xlink:href="#a1lQ631Fsr" opacity="1" fill-opacity="0" stroke="#ffffff" stroke-width="2" stroke-opacity="0.99"></use></g></g><g><g><use xlink:href="#g1UviqXeim" opacity="1" fill-opacity="0" stroke="#000000" stroke-width="1" stroke-opacity="0.99"></use></g></g></g></g></svg>