<?xml version="1.0" encoding="UTF-8" standalone="no"?>
<!DOCTYPE svg PUBLIC "-//W3C//DTD SVG 1.1//EN" "http://www.w3.org/Graphics/SVG/1.1/DTD/svg11.dtd">
<svg version="1.1" xmlns="http://www.w3.org/2000/svg" xmlns:xlink="http://www.w3.org/1999/xlink" preserveAspectRatio="xMidYMid meet" viewBox="0 0 24 24" width="24" height="24"><defs><path d="M7.08 10.83C7.08 14.03 7.08 16.03 7.08 16.83C7.08 17.21 7.3 17.56 7.64 17.72C8.51 18.13 10.61 19.13 11.49 19.54C11.8 19.69 12.17 19.69 12.48 19.54C13.36 19.11 15.37 18.13 16.22 17.72C16.63 17.52 16.89 17.1 16.89 16.65C16.89 15.87 16.89 13.94 16.89 10.83L7.08 10.83Z" id="cKRgE8WZI"></path><path d="M13.42 13.29C12.5 13.68 11.47 13.68 10.55 13.29C8.39 12.37 4.65 10.79 2.82 10.02C1.7 9.54 1.73 7.95 2.87 7.52C4.69 6.83 8.48 5.41 10.67 4.59C11.52 4.27 12.45 4.27 13.3 4.59C15.49 5.41 19.31 6.85 21.14 7.54C22.26 7.96 22.29 9.53 21.19 10C19.35 10.78 15.59 12.37 13.42 13.29Z" id="aQJ0s7Pse"></path><mask id="maskf18tszEPX" x="1.8" y="4.15" width="20.4" height="9.64" maskUnits="userSpaceOnUse"><rect x="1.8" y="4.15" width="20.4" height="9.64" fill="white"></rect><use xlink:href="#aQJ0s7Pse" opacity="1" fill="black"></use></mask><path d="M18.42 14.93L18.42 10.83L11.99 8.65" id="g1UviqXeim"></path></defs><g><g><g><use xlink:href="#cKRgE8WZI" opacity="1" fill="#000000" fill-opacity="1"></use></g><g><use xlink:href="#aQJ0s7Pse" opacity="1" fill="#000000" fill-opacity="1"></use><g mask="url(#maskf18tszEPX)"><use xlink:href="#aQJ0s7Pse" opacity="1" fill-opacity="0" stroke="#ffffff" stroke-width="0.2" stroke-opacity="0.99"></use></g></g><g><g><use xlink:href="#g1UviqXeim" opacity="1" fill-opacity="0" stroke="#000000" stroke-width="1" stroke-opacity="0.99"></use></g></g></g></g></svg>